# xmcd
#
# Track frame offsets: 
#        150
#        72342
#        100732
#        134195
#        165232
#        227030
#
# Disc length: 4190 seconds
#
# Revision: 1
# Processed by: cddbd v1.5.2PL0 Copyright (c) Steve Scherf et al.
# Submitted via: ExactAudioCopy v0.99pb4
#
DISCID=4c105c06
DTITLE=Isaac Hayes - Joy
DYEAR=1973
DGENRE=Soul
TTITLE0=Joy
TTITLE1=I Love You That's All
TTITLE2=A Man Will Be A Man
TTITLE3=The Feeling Keeps Coming On
TTITLE4=I'm Gonna Make It (Without You)
TTITLE5=Multimedia-Track
EXTD=© 2001\nLabel: Stax Records (Fantasy Inc.]\nSCD24 8530-2\n24 BIT 
EXTD=Remastered
EXTT0=
EXTT1=
EXTT2=
EXTT3=
EXTT4=
EXTT5=
PLAYORDER=
